PathFileType	4	(X/Y/Z)	C:/Users/beibeiliu/ov580/test_trc/capture2\sequence.29_training_dense_left.trc
DataRate	CameraRate	NumFrames	NumMarkers	Units	OrigDataRate	OrigDataStartFrame	OrigNumFrames
120	120	24	19	mm	120	1	340
Frame#	Time	ThumbCMC			ThumbMCP			ThumbIP			ThumbTip			IndexMCP			IndexPIP			IndexTip			MiddleMCP			MiddlePIP			MiddleTip			RingMCP			RingPIP			RingTip			PinkyMCP			PinkyPIP			PinkyTip			BackHand1			BackHand2			BackHand3	
		X0	Y0	Z0	X1	Y1	Z1	X2	Y2	Z2	X3	Y3	Z3	X4	Y4	Z4	X5	Y5	Z5	X6	Y6	Z6	X7	Y7	Z7	X8	Y8	Z8	X9	Y9	Z9	X10	Y10	Z10	X11	Y11	Z11	X12	Y12	Z12	X13	Y13	Z13	X14	Y14	Z14	X15	Y15	Z15	X16	Y16	Z16	X17	Y17	Z17	X18	Y18	Z18	
0	0	-101.269	37.8598	15.0772	-85.2439	24.175	-1.89975	-63.9069	19.5106	-19.5628	-48.522	15.0196	-39.2972	-98.2988	59.9205	-57.4558	-88.3722	59.9318	-80.2507	-80.9571	64.651	-109.108	-118.091	66.5492	-69.1738	-115.769	68.7377	-95.5359	-114.171	70.0992	-124.383	-138.384	65.4669	-71.2989	-139.281	66.9442	-92.4818	-139.18	67.1561	-119.514	-167.214	59.457	-63.6558	-170.844	58.0201	-81.3579	-173.134	64.5496	-105.829	-147.195	71.5557	-22.4285	-154.749	71.3583	11.5793	-120.867	67.2117	-0.864545	
1	0.00833333	-103.419	37.9114	12.6197	-84.9873	25.1973	-2.70657	-69.6212	20.506	-21.6877	-50.3023	15.0054	-38.9058	-99.0487	60.9696	-58.7317	-89.4329	62.1106	-84.3307	-83.4455	64.8476	-110.464	-117.551	67.537	-71.2557	-115.679	68.9358	-92.7374	-114.631	70.7119	-124.259	-143.662	66.9217	-69.9409	-139.029	66.5519	-92.7209	-138.389	68.6262	-124.033	-165.5	59.0195	-59.6349	-171.924	59.9389	-86.2398	-176.127	66.9381	-103.98	-151.182	71.1543	-19.1424	-153.88	72.6484	9.34337	-120.729	66.5335	-2.25249	
2	0.0166667	-104.732	36.7008	15.0863	-88.2156	24.5801	-0.231118	-65.9704	19.5265	-22.8385	-54.3306	15.3839	-35.4514	-93.563	59.6915	-60.0436	-90.3524	60.9703	-81.4254	-80.7142	63.5573	-104.552	-120.67	67.5883	-67.513	-116.137	68.4407	-93.2178	-112.11	69.8178	-121.254	-139.347	65.406	-66.4795	-139.15	66.5039	-96.3855	-139.885	68.2527	-122.308	-166.851	60.4733	-60.232	-172.005	59.4077	-83.2736	-174.552	64.9802	-103.996	-151.822	71.8316	-18.9103	-153.884	70.5971	9.87909	-123.254	66.0362	1.02178	
3	0.025	-100.523	36.9174	11.9542	-87.8211	24.9533	-2.92467	-68.1519	20.1747	-21.1627	-53.7677	15.609	-33.275	-96.4783	59.7917	-59.5673	-85.3624	60.9401	-82.8627	-86.1834	63.88	-104.455	-118.809	66.162	-65.4371	-116.211	68.241	-94.8146	-114.794	69.7089	-121.864	-138.711	65.4551	-68.4655	-140.351	66.5315	-94.4963	-138.455	67.8023	-116.405	-162.553	58.3654	-58.1403	-167.163	60.0115	-82.025	-174.099	67.7491	-102.383	-149.891	69.9775	-21.0382	-157.434	71.2063	8.56249	-121.26	65.9198	-1.05236	
4	0.0333333	-105.669	36.8049	15.1148	-85.6721	25.3008	-3.37683	-65.7128	20.0591	-18.2022	-50.3732	15.9041	-33.3293	-94.4318	59.3268	-55.0178	-88.0005	60.8876	-77.852	-81.4377	64.0023	-102.146	-115.114	67.7705	-69.8466	-112.881	67.368	-96.098	-112.009	69.6616	-119.207	-143.199	66.0568	-67.6492	-138.229	68.1693	-94.8217	-139.165	69.5517	-120.468	-167.468	60.1288	-60.2145	-165.758	60.1743	-80.1922	-173.645	69.4354	-102.017	-150.193	71.8644	-19.7685	-151.347	70.8877	8.93043	-122.002	65.1123	-0.721296	
5	0.0416667	-104.09	37.447	12.4008	-86.6684	26.1899	-1.62893	-66.5813	22.0411	-21.2842	-49.4337	16.8566	-33.3437	-93.8471	58.9137	-52.6786	-89.4212	61.6997	-81.5643	-81.896	63.7782	-101.668	-119.155	67.6446	-68.5947	-113.623	68.4311	-92.2786	-114.484	70.5867	-119.855	-143.233	66.8477	-66.7604	-140.771	69.3084	-93.8427	-140.269	71.17	-116.377	-164.648	61.5029	-58.5155	-165.742	61.192	-77.3808	-173.671	68.8703	-101.021	-147.6	70.7066	-14.8583	-154.217	70.4419	11.2628	-119.091	64.3106	2.26486	
6	0.05	-101.249	38.9022	14.4401	-83.609	27.3428	-0.613695	-68.6626	22.0169	-16.5662	-51.6096	19.3677	-32.2445	-95.7928	62.1596	-57.5179	-86.7435	61.48	-76.1532	-83.7823	65.0637	-101.944	-119.413	69.6808	-68.1636	-113.431	69.8008	-89.1226	-111.701	73.1125	-120.357	-138.309	67.2491	-62.9982	-139.319	70.121	-89.8453	-135.057	74.0148	-118.265	-166.225	63.1655	-57.9241	-167.463	64.5858	-81.8729	-172.243	72.36	-101.287	-146.497	69.9348	-13.6561	-155.418	72.251	13.5576	-121.611	68.0681	4.07633	
7	0.0583333	-102.026	40.7251	19.4878	-84.9483	28.8835	2.26106	-63.0004	26.0421	-17.9755	-47.7543	21.9215	-29.9498	-94.2462	64.9589	-55.2566	-84.393	64.577	-80.0357	-84.026	68.5049	-101.657	-116.957	71.845	-66.9202	-113.691	72.5697	-89.5295	-107.492	74.8277	-121.894	-137.05	70.3365	-63.5635	-140.788	73.012	-90.0075	-137.529	75.7418	-114.491	-164.502	66.979	-59.5825	-165.138	66.3532	-77.6043	-170.038	75.7313	-103.177	-150.911	73.8836	-13.9193	-154.264	74.3344	12.4157	-117.744	70.5281	4.57375	
8	0.0666667	-100.994	42.1843	16.4744	-84.3014	31.4011	-1.07542	-67	28.4363	-18.4466	-47.5692	25.6859	-34.8775	-93.9797	67.2488	-52.6816	-84.7353	68.6513	-80.5279	-77.4828	70.5079	-104.715	-116.15	74.7277	-62.8425	-114.979	77.3455	-92.643	-109.99	78.9201	-119	-137.95	74.2231	-64.8963	-139.456	76.3506	-88.7062	-133.293	79.1041	-115.92	-164.38	68.505	-54.6893	-164.293	69.1544	-75.802	-170.066	79.2409	-99.7694	-147.159	75.4758	-14.4567	-154.634	75.5574	15.8498	-119.309	70.6487	5.41546	
9	0.075	-102.545	44.057	17.7152	-79.8708	32.8448	0.910919	-62.147	30.3123	-14.9965	-50.4131	27.1897	-32.9347	-92.1484	69.3733	-53.3673	-87.8401	71.517	-76.225	-81.4912	74.8361	-102.469	-113.751	77.8868	-64.2339	-110.657	79.935	-89.094	-109.13	81.9827	-116.756	-133.986	76.8962	-64.7426	-139.935	79.7978	-86.3568	-134.962	81.9945	-113.711	-159.435	69.8894	-53.1789	-165.175	72.6366	-77.803	-168.244	80.9858	-98.3901	-149.101	78.539	-13.4826	-152.433	78.2387	12.8447	-117.644	72.4827	6.93485	
10	0.0833333	-99.2632	46.4849	16.2102	-81.4662	35.736	0.627945	-62.3814	33.0612	-17.7374	-45.6422	30.8782	-33.7846	-94.0271	72.2569	-55.028	-84.8544	73.3221	-76.8164	-81.6124	77.4228	-104.931	-114.485	81.3995	-65.5667	-111.499	82.6853	-87.9059	-112.483	86.6574	-116.569	-140.44	79.595	-63.4107	-138.969	82.9112	-86.3002	-133.642	86.8406	-114.405	-159.427	72.5731	-53.2794	-164.473	76.4934	-76.719	-168.562	84.0673	-97.703	-148.654	80.3057	-12.7015	-151.452	78.467	12.2658	-118.843	75.5886	5.76648	
11	0.0916667	-103.245	46.5149	17.4568	-79.1919	36.7861	2.60043	-60.8286	35.4058	-16.2249	-49.1451	33.8602	-34.0541	-92.4016	74.5592	-54.8785	-84.2884	76.2939	-79.0444	-82.4919	79.9213	-101.112	-115.228	82.9348	-62.3797	-113.517	87.1781	-89.552	-110.393	91.3169	-119.178	-139.495	80.958	-61.0493	-136.126	84.4261	-85.1014	-136.542	89.6904	-110.764	-158.042	76.3654	-57.7549	-162.698	77.2932	-74.6154	-170.983	88.1636	-98.5239	-147.914	83.2193	-14.0235	-154.067	80.5732	14.2356	-116.202	74.4001	4.49877	
12	0.1	-102.232	49.1383	13.5378	-84.1533	37.7859	-1.07843	-60.5739	35.5613	-16.6158	-45.6096	35.0209	-32.4432	-91.3982	75.5756	-55.6014	-82.538	76.8509	-77.3566	-80.9914	80.6847	-99.3838	-113.442	83.9099	-63.8307	-113.009	88.2139	-90.6249	-112.015	92.7645	-115.012	-140.942	82.7936	-62.3826	-134.781	86.4707	-87.7095	-135.578	91.2699	-112.092	-162.551	74.6429	-54.0264	-164.96	77.0607	-74.0304	-169.554	89.8044	-98.3319	-144.409	80.2696	-15.1684	-152.656	78.4779	16.5562	-119.345	74.5827	6.35044	
13	0.108333	-101.796	46.5062	17.6494	-79.5056	37.8234	0.0065747	-60.0592	36.9757	-18.1567	-45.3514	34.6967	-33.9808	-96.4752	74.7385	-53.2972	-86.1484	76.6109	-75.1955	-80.3621	80.0109	-103.195	-115.502	84.3328	-65.3411	-111.867	86.9745	-89.7625	-110.046	91.2793	-114.15	-138.446	81.3962	-64.0143	-138.036	84.2114	-84.5737	-135.397	89.6682	-110.289	-159.805	73.9674	-58.2936	-166.7	75.8138	-79.3983	-169.763	86.771	-97.3878	-146.345	78.5259	-15.6242	-152.859	78.9471	13.9964	-120.193	76.1124	8.53793	
14	0.116667	-99.812	47.0969	18.2367	-81.4021	36.6008	3.52472	-60.6797	34.734	-15.0343	-47.7583	33.559	-32.9219	-96.0301	73.2459	-55.8891	-87.4671	74.0122	-77.1995	-80.9147	75.8889	-102.598	-115.79	79.7326	-62.0984	-112.089	83.2926	-88.0631	-111.682	89.3034	-119.338	-138.959	77.0041	-63.1077	-138.644	81.1309	-86.6513	-135.529	85.3777	-109.476	-165.53	68.3719	-58.4956	-168.869	68.828	-74.3923	-175.786	82.0159	-97.5851	-151.701	76.7714	-13.6569	-153.542	73.7455	12.9109	-122.019	74.4931	5.36179	
15	0.125	-100.202	45.3939	18.3193	-81.441	35.2214	1.07374	-59.1738	34.2715	-17.949	-46.5855	29.9654	-29.7585	-94.7609	69.5587	-53.433	-83.7594	70.1706	-76.0943	-81.4232	73.1723	-105.073	-120.308	76.064	-61.5774	-112.342	80.2906	-90.3113	-112.092	85.055	-114.992	-141.829	71.2351	-61.76	-139.072	73.9907	-84.9233	-139.331	80.082	-110.359	-167.467	59.9743	-57.4267	-168.722	59.2403	-76.0235	-175.984	69.5632	-97.0487	-149.872	71.3943	-16.391	-155.403	70.9956	13.4538	-120.55	74.0059	3.37915	
16	0.133333	-100.126	44.9911	20.7653	-79.0433	34.2032	0.496135	-61.5743	31.8344	-14.4737	-44.2771	30.2373	-31.9302	-96.6546	66.1286	-51.4475	-86.5177	66.0083	-78.8968	-80.8426	68.8627	-101.001	-123.152	70.4299	-60.6464	-118.689	75.2497	-88.7097	-115.818	80.0945	-114.254	-139.563	64.8655	-62.9114	-142.708	68.5091	-87.3391	-141.306	74.8954	-113.669	-166.425	50.2873	-58.7681	-169.86	47.0424	-75.1053	-177.762	52.543	-95.6654	-152.57	67.5495	-12.3524	-155.425	69.459	11.9693	-123.726	71.8209	2.40097	
17	0.141667	-98.0945	45.0719	19.7431	-82.2185	32.1575	5.12004	-61.7773	29.9074	-11.9732	-43.6297	28.0135	-27.8374	-94.4096	63.2204	-49.9258	-86.6584	62.9382	-78.0845	-80.575	65.6842	-99.1858	-122.285	68.2048	-64.4896	-117.856	70.7166	-87.0718	-118.424	77.3308	-117.798	-143.915	59.41	-63.711	-144.71	60.6012	-84.7058	-139.078	64.7656	-111.736	-164.945	42.8131	-55.5787	-171.723	35.1549	-76.1664	-178.269	36.3561	-93.0894	-151.043	64.7808	-14.8773	-158.502	65.8261	11.2689	-126.548	69.3359	3.64974	
18	0.15	-97.2356	45.1119	18.966	-83.1545	32.066	5.59455	-58.5272	29.7147	-14.0771	-46.9143	27.1352	-29.4173	-96.8908	59.7181	-50.0373	-86.2613	61.1512	-74.8096	-83.3071	64.1674	-99.526	-123.113	64.2704	-60.9553	-122.521	67.6185	-90.325	-121.852	72.3782	-111.63	-144.8	53.3843	-61.2963	-147.264	53.099	-86.9956	-144.216	56.6984	-113.837	-166.249	34.9444	-54.1125	-168.896	25.2269	-75.047	-175.769	23.1807	-92.447	-151.288	60.8847	-12.5679	-159.744	64.5426	14.6414	-127.882	65.2494	4.61165	
19	0.158333	-100.174	44.0422	20.1201	-79.1559	32.8653	6.83788	-60.757	30.4003	-11.2576	-44.1325	27.8025	-26.3095	-98.5068	60.089	-54.4988	-89.1688	59.602	-72.1524	-84.0024	63.3841	-98.2545	-124.679	62.3591	-63.9722	-119.531	64.2259	-86.5652	-122.925	69.7359	-111.437	-147.127	48.5567	-65.0378	-145.834	46.1115	-83.7582	-145.016	47.9388	-112.452	-167.737	30.5671	-51.2934	-170.117	18.1643	-68.8915	-176.449	9.50835	-89.9453	-152.762	61.1228	-14.914	-158.385	60.7683	17.526	-123.24	66.3531	6.85358	
20	0.166667	-101.956	44.8377	22.8147	-78.6172	34.2923	4.44143	-58.962	32.5318	-13.3667	-42.7007	29.3407	-28.0844	-100.011	59.4479	-49.3889	-90.3872	60.8461	-75.6745	-84.7707	66.5497	-99.0015	-127.489	59.6294	-60.9995	-120.769	62.722	-84.9847	-123.601	69.593	-112.434	-146.865	45.7522	-61.5042	-147.739	42.5434	-88.067	-144.459	41.338	-110.081	-165.837	27.5781	-50.9879	-167.061	12.5663	-67.0342	-169.269	2.60005	-87.9329	-153.043	58.4873	-13.0251	-157.52	61.276	14.3467	-126.79	66.5999	2.95113	
21	0.175	-99.3202	47.5662	20.0697	-82.0164	34.9954	8.43845	-59.9552	33.7447	-11.4777	-47.4998	29.9127	-24.5913	-98.8042	61.143	-50.8897	-88.3262	63.2628	-71.3267	-84.5358	69.9428	-93.3773	-123.179	62.4589	-63.3188	-124.185	63.2909	-87.4639	-124.355	69.5355	-110.504	-145.879	45.518	-60.2437	-145.287	40.0332	-86.7424	-145.822	36.3783	-109.664	-162.604	25.752	-52.9933	-161.626	8.89425	-68.2831	-164.537	-4.52327	-83.5469	-152.792	60.1797	-13.5321	-159.372	62.3536	18.0234	-126.291	67.2137	5.66625	
22	0.183333	-99.6307	48.1557	23.0055	-80.9198	37.9605	3.22146	-59.8484	36.3566	-13.7708	-42.3498	34.2094	-27.8846	-97.8986	64.4292	-45.9643	-90.1292	66.9657	-70.1981	-87.1758	73.4221	-92.1419	-123.78	63.3829	-60.8855	-127.474	63.1996	-83.4511	-127.872	71.4821	-113.819	-142.461	46.659	-58.569	-146.688	38.1382	-83.8587	-141.279	31.243	-108.321	-163.309	25.7974	-50.8388	-158.752	5.89996	-64.3702	-159.51	-10.0991	-79.1885	-155.652	62.6924	-12.7689	-160.053	66.7093	19.4653	-125.131	70.7735	6.93706	
23	0.191667	-101.259	51.2599	21.8237	-83.2154	40.0012	4.25676	-63.4345	38.534	-8.99653	-45.2291	38.6886	-27.676	-97.0973	69.3739	-47.5581	-92.4427	72.9353	-73.0476	-89.2438	79.978	-89.8556	-127.275	66.8255	-62.5862	-122.265	68.0895	-84.6095	-124.746	73.2138	-113.208	-146.759	47.1319	-60.9344	-142.073	35.5805	-84.9601	-138.634	24.3329	-107.176	-157.94	29.0476	-50.1549	-152.22	7.333	-60.7089	-147.531	-12.3424	-70.6711	-155.254	64.2711	-8.82063	-161.164	66.5508	18.3093	-126.566	71.574	5.75739	
